# xmcd
#
# Track frame offsets: 
#        150
#        25482
#        52072
#        66972
#        73510
#        89712
#        127542
#        142295
#        166292
#        183012
#        205122
#        222112
#        240692
#        264137
#        284867
#
# Disc length: 4051 seconds
#
# Revision: 3
# Processed by: cddbd v1.5.2PL0 Copyright (c) Steve Scherf et al.
# Submitted via: ExactAudioCopyFreeDBPlugin 1.0
#
DISCID=e60fd10f
DTITLE=Livin' Blues - Blue Breeze
DYEAR=1975
DGENRE=Blues
TTITLE0=Shylina
TTITLE1=Back Stage
TTITLE2=Midnight Blues
TTITLE3=Pisces
TTITLE4=Bus 29
TTITLE5=Blue Breeze
TTITLE6=Pick Up On My Mojo
TTITLE7=That Night
TTITLE8=Black Jack Billy
TTITLE9=Shannon
TTITLE10=Punk Funk
TTITLE11=Roses
TTITLE12=Rock and Roll Hoochie Coo
TTITLE13=Will You Still Love Me
TTITLE14=Doomsday Night
EXTD=
EXTT0=
EXTT1=
EXTT2=
EXTT3=
EXTT4=
EXTT5=
EXTT6=
EXTT7=
EXTT8=
EXTT9=
EXTT10=
EXTT11=
EXTT12=
EXTT13=
EXTT14=
PLAYORDER=
